<svg xmlns="http://www.w3.org/2000/svg" width="64" height="64" viewBox="0 0 64 64" fill="none">
  <defs>
    <linearGradient id="gradFavicon" x1="0" y1="0" x2="100%" y2="100%">
      <stop offset="0%" stop-color="#9333EA"/>
      <stop offset="100%" stop-color="#3B82F6"/>
    </linearGradient>
  </defs>

  <!-- Chat Bubble Base -->
  <path d="M8 20 a12 12 0 0 1 12 -12 h24 a12 12 0 0 1 12 12 v12 a12 12 0 0 1 -12 12 h-10 l-8 8 v-8 h-2 a12 12 0 0 1 -12 -12 z"
        fill="url(#gradFavicon)" stroke="#1E293B" stroke-width="1.5"/>

  <!-- Neural Network Dots -->
  <circle cx="20" cy="28" r="2.5" fill="white"/>
  <circle cx="32" cy="22" r="2.5" fill="white"/>
  <circle cx="42" cy="32" r="2.5" fill="white"/>
  <circle cx="28" cy="36" r="2.5" fill="white"/>

  <!-- Connecting Lines -->
  <line x1="20" y1="28" x2="32" y2="22" stroke="white" stroke-width="1.5"/>
  <line x1="32" y1="22" x2="42" y2="32" stroke="white" stroke-width="1.5"/>
  <line x1="20" y1="28" x2="28" y2="36" stroke="white" stroke-width="1.5"/>
  <line x1="28" y1="36" x2="42" y2="32" stroke="white" stroke-width="1.5"/>
</svg>
